<mxfile host="app.diagrams.net" modified="2020-03-29T02:56:28.145Z" agent="Mozilla/5.0 (Macintosh; Intel Mac OS X 10_14_6) AppleWebKit/605.1.15 (KHTML, like Gecko) Version/13.0.5 Safari/605.1.15" etag="YzKTvRB5oGcbRhof_93X" version="12.8.8" type="github">
  <diagram name="Page-1" id="c37626ed-c26b-45fb-9056-f9ebc6bb27b6">
    <mxGraphModel dx="652" dy="457" grid="1" gridSize="10" guides="1" tooltips="1" connect="1" arrows="1" fold="1" page="1" pageScale="1" pageWidth="1100" pageHeight="850" background="#ffffff" math="0" shadow="0">
      <root>
        <mxCell id="0" />
        <mxCell id="1" parent="0" />
        <mxCell id="5YdXkLpchV6THjFA2-oe-8" value="&lt;font color=&quot;#ffffff&quot; style=&quot;font-size: 15px;&quot;&gt;&lt;span style=&quot;font-size: 15px;&quot;&gt;構造&lt;/span&gt;&lt;/font&gt;" style="rounded=0;whiteSpace=wrap;html=1;labelBackgroundColor=#000099;fontSize=15;fillColor=#000099;strokeColor=#6c8ebf;" vertex="1" parent="1">
          <mxGeometry x="160" y="160" width="160" height="30" as="geometry" />
        </mxCell>
        <mxCell id="5YdXkLpchV6THjFA2-oe-9" value="&lt;font color=&quot;#ffffff&quot;&gt;&lt;span&gt;半構造&lt;/span&gt;&lt;/font&gt;" style="rounded=0;whiteSpace=wrap;html=1;labelBackgroundColor=#000099;fontSize=15;fillColor=#000099;strokeColor=#6c8ebf;" vertex="1" parent="1">
          <mxGeometry x="340" y="160" width="160" height="30" as="geometry" />
        </mxCell>
        <mxCell id="5YdXkLpchV6THjFA2-oe-10" value="&lt;font color=&quot;#ffffff&quot;&gt;&lt;span&gt;非構造&lt;/span&gt;&lt;/font&gt;" style="rounded=0;whiteSpace=wrap;html=1;labelBackgroundColor=#000099;fontSize=15;fillColor=#000099;strokeColor=#6c8ebf;" vertex="1" parent="1">
          <mxGeometry x="520" y="160" width="160" height="30" as="geometry" />
        </mxCell>
        <mxCell id="5YdXkLpchV6THjFA2-oe-11" value="主にリレーショナルデータベースで構造を定められた/仕様のあるデータ" style="text;html=1;strokeColor=none;fillColor=none;align=left;verticalAlign=middle;whiteSpace=wrap;rounded=0;labelBackgroundColor=none;fontSize=12;fontColor=#000000;labelBorderColor=#000099;" vertex="1" parent="1">
          <mxGeometry x="160" y="190" width="160" height="50" as="geometry" />
        </mxCell>
        <mxCell id="5YdXkLpchV6THjFA2-oe-12" value="主にリレーショナルデータベースで構造を定められた/仕様のあるデータ" style="text;html=1;strokeColor=none;fillColor=none;align=left;verticalAlign=middle;whiteSpace=wrap;rounded=0;labelBackgroundColor=none;fontSize=12;fontColor=#000000;labelBorderColor=#000099;" vertex="1" parent="1">
          <mxGeometry x="340" y="190" width="160" height="50" as="geometry" />
        </mxCell>
      </root>
    </mxGraphModel>
  </diagram>
</mxfile>
